<svg width="20" height="20" viewBox="0 0 20 20" fill="none" xmlns="http://www.w3.org/2000/svg">
<circle cx="10" cy="10" r="10" fill="#8DB040"/>
<path fill-rule="evenodd" clip-rule="evenodd" d="M10.7176 4.74295C10.7176 4.65808 10.701 4.57404 10.6686 4.49561C10.6361 4.41719 10.5886 4.34592 10.5286 4.28587C10.4686 4.22583 10.3974 4.17818 10.319 4.14565C10.2406 4.11313 10.1566 4.09636 10.0717 4.09631C9.98688 4.09625 9.90284 4.11292 9.82441 4.14535C9.74599 4.17777 9.67472 4.22533 9.61467 4.2853C9.55463 4.34527 9.50698 4.41648 9.47446 4.49487C9.44194 4.57325 9.42517 4.65728 9.42512 4.74214L9.42516 10.2536L3.91447 10.2528C3.74298 10.2528 3.5785 10.3209 3.45724 10.4422C3.33597 10.5634 3.26784 10.7279 3.26784 10.8994C3.26785 11.0709 3.33597 11.2354 3.45724 11.3567C3.57851 11.4779 3.74299 11.5461 3.91448 11.5461L9.42517 11.5453L9.42443 17.056C9.42443 17.1409 9.44115 17.225 9.47365 17.3035C9.50615 17.3819 9.55378 17.4532 9.61382 17.5132C9.67387 17.5733 9.74515 17.6209 9.82361 17.6534C9.90206 17.6859 9.98615 17.7026 10.0711 17.7026C10.2426 17.7026 10.407 17.6345 10.5283 17.5132C10.5883 17.4532 10.636 17.3819 10.6685 17.3035C10.701 17.225 10.7177 17.1409 10.7177 17.056L10.7169 11.5453L16.2283 11.5454C16.3997 11.5453 16.5641 11.4771 16.6852 11.3558C16.8063 11.2345 16.8743 11.0701 16.8742 10.8987C16.8741 10.7273 16.8059 10.563 16.6846 10.4419C16.5633 10.3208 16.3989 10.2528 16.2275 10.2529L10.7168 10.2536L10.7176 4.74295Z" fill="#F4F4F4"/>
</svg>
