<svg width="20" height="20" viewBox="0 0 20 20" fill="none" xmlns="http://www.w3.org/2000/svg">
<circle cx="10" cy="10" r="10" fill="#B04040"/>
<path fill-rule="evenodd" clip-rule="evenodd" d="M14.8817 7.0033C14.9418 6.94332 14.9894 6.87211 15.0219 6.79373C15.0545 6.71534 15.0712 6.63132 15.0713 6.54645C15.0713 6.46159 15.0547 6.37754 15.0222 6.29911C14.9898 6.22069 14.9423 6.14942 14.8823 6.08937C14.8223 6.02933 14.7511 5.98168 14.6727 5.94916C14.5943 5.91663 14.5103 5.89986 14.4255 5.89981C14.3406 5.89976 14.2565 5.91642 14.1781 5.94885C14.0997 5.98128 14.0284 6.02884 13.9684 6.08881L10.0712 9.98605L6.17515 6.08881C6.05389 5.96754 5.88941 5.89941 5.71792 5.89941C5.54642 5.89941 5.38195 5.96754 5.26068 6.08881C5.13942 6.21008 5.07129 6.37455 5.07129 6.54605C5.07129 6.71755 5.13942 6.88203 5.26068 7.0033L9.15786 10.8994L5.26068 14.7955C5.20064 14.8556 5.15301 14.9269 5.12051 15.0053C5.08801 15.0838 5.07129 15.1679 5.07129 15.2528C5.07129 15.3377 5.08801 15.4218 5.12051 15.5002C5.15301 15.5787 5.20064 15.65 5.26068 15.71C5.38195 15.8313 5.54642 15.8994 5.71792 15.8994C5.80283 15.8994 5.88692 15.8827 5.96537 15.8502C6.04382 15.8177 6.11511 15.7701 6.17515 15.71L10.0712 11.8128L13.9684 15.71C14.0896 15.8311 14.2541 15.8991 14.4255 15.899C14.5968 15.8989 14.7612 15.8307 14.8823 15.7095C15.0034 15.5882 15.0714 15.4238 15.0713 15.2524C15.0712 15.081 15.003 14.9167 14.8817 14.7955L10.9846 10.8994L14.8817 7.0033Z" fill="#F4F4F4"/>
</svg>
