<svg width="16" height="16" viewBox="0 0 16 16" fill="none" xmlns="http://www.w3.org/2000/svg">
<path d="M7.2 6.52L6.48 5.82C6.32 5.67333 6.12987 5.6032 5.9096 5.6096C5.68987 5.61653 5.50667 5.69333 5.36 5.84C5.21333 5.98667 5.14 6.17333 5.14 6.4C5.14 6.62667 5.21333 6.81333 5.36 6.96L7.44 9.04C7.6 9.2 7.78667 9.28 8 9.28C8.21333 9.28 8.4 9.2 8.56 9.04L10.66 6.94C10.8067 6.79333 10.8768 6.60987 10.8704 6.3896C10.8635 6.16987 10.7867 5.98667 10.64 5.84C10.4933 5.69333 10.3101 5.62 10.0904 5.62C9.87013 5.62 9.68 5.69333 9.52 5.84L8.8 6.52V3.98C8.8 3.75333 8.72347 3.56667 8.5704 3.42C8.4168 3.27333 8.22667 3.2 8 3.2C7.77333 3.2 7.58347 3.27653 7.4304 3.4296C7.2768 3.5832 7.2 3.77333 7.2 4V6.52ZM4.8 12H11.22C11.4467 12 11.6333 11.9232 11.78 11.7696C11.9267 11.6165 12 11.4267 12 11.2C12 10.9733 11.9232 10.7832 11.7696 10.6296C11.6165 10.4765 11.4267 10.4 11.2 10.4H4.78C4.55333 10.4 4.36667 10.4765 4.22 10.6296C4.07333 10.7832 4 10.9733 4 11.2C4 11.4267 4.07653 11.6165 4.2296 11.7696C4.3832 11.9232 4.57333 12 4.8 12ZM8 16C6.89333 16 5.85333 15.7899 4.88 15.3696C3.90667 14.9499 3.06 14.38 2.34 13.66C1.62 12.94 1.05013 12.0933 0.6304 11.12C0.210133 10.1467 0 9.10667 0 8C0 6.89333 0.210133 5.85333 0.6304 4.88C1.05013 3.90667 1.62 3.06 2.34 2.34C3.06 1.62 3.90667 1.04987 4.88 0.6296C5.85333 0.209867 6.89333 0 8 0C9.10667 0 10.1467 0.209867 11.12 0.6296C12.0933 1.04987 12.94 1.62 13.66 2.34C14.38 3.06 14.9499 3.90667 15.3696 4.88C15.7899 5.85333 16 6.89333 16 8C16 9.10667 15.7899 10.1467 15.3696 11.12C14.9499 12.0933 14.38 12.94 13.66 13.66C12.94 14.38 12.0933 14.9499 11.12 15.3696C10.1467 15.7899 9.10667 16 8 16ZM8 14.4C9.77333 14.4 11.2835 13.7768 12.5304 12.5304C13.7768 11.2835 14.4 9.77333 14.4 8C14.4 6.22667 13.7768 4.71653 12.5304 3.4696C11.2835 2.2232 9.77333 1.6 8 1.6C6.22667 1.6 4.7168 2.2232 3.4704 3.4696C2.22347 4.71653 1.6 6.22667 1.6 8C1.6 9.77333 2.22347 11.2835 3.4704 12.5304C4.7168 13.7768 6.22667 14.4 8 14.4Z" fill="url(#paint0_linear_2363_20915)"/>
<defs>
<linearGradient id="paint0_linear_2363_20915" x1="8" y1="0" x2="8" y2="16" gradientUnits="userSpaceOnUse">
<stop stop-color="#8DB040"/>
<stop offset="1" stop-color="#17598C"/>
</linearGradient>
</defs>
</svg>
