<svg width="26" height="26" viewBox="0 0 26 26" fill="none" xmlns="http://www.w3.org/2000/svg">
<path d="M11.7349 3.53027H3.38553C2.75285 3.53027 2.14608 3.78161 1.69871 4.22899C1.25133 4.67637 1 5.28314 1 5.91583V22.6147C1 23.2474 1.25133 23.8542 1.69871 24.3016C2.14608 24.7489 2.75285 25.0003 3.38553 25.0003H20.0842C20.7169 25.0003 21.3237 24.7489 21.7711 24.3016C22.2184 23.8542 22.4698 23.2474 22.4698 22.6147V14.2653" stroke="#504F4F" stroke-linecap="round" stroke-linejoin="round"/>
<path d="M20.6805 1.7411C21.155 1.26658 21.7986 1 22.4697 1C23.1407 1 23.7843 1.26658 24.2588 1.7411C24.7333 2.21561 24.9999 2.8592 24.9999 3.53026C24.9999 4.20133 24.7333 4.84491 24.2588 5.31943L12.9276 16.6508L8.15649 17.8436L9.34926 13.0725L20.6805 1.7411Z" stroke="#504F4F" stroke-linecap="round" stroke-linejoin="round"/>
</svg>
