<svg width="21" height="21" viewBox="0 0 21 21" fill="none" xmlns="http://www.w3.org/2000/svg">
<path d="M8.25 14.25H18.1275L16.1925 16.1925L17.25 17.25L21 13.5L17.25 9.75L16.1925 10.8075L18.1275 12.75H8.25V14.25Z" fill="#504F4F"/>
<path d="M15 9.00001V6.00001C15.0006 5.90131 14.9817 5.80346 14.9443 5.71208C14.907 5.6207 14.852 5.53759 14.7825 5.46751L9.5325 0.217513C9.46242 0.148001 9.37931 0.0930076 9.28793 0.0556841C9.19655 0.0183607 9.09871 -0.000558134 9 1.25357e-05H1.5C1.10218 1.25357e-05 0.720644 0.158048 0.43934 0.439352C0.158035 0.720657 0 1.10219 0 1.50001V19.5C0 19.8978 0.158035 20.2794 0.43934 20.5607C0.720644 20.842 1.10218 21 1.5 21H13.5C13.8978 21 14.2794 20.842 14.5607 20.5607C14.842 20.2794 15 19.8978 15 19.5V18H13.5V19.5H1.5V1.50001H7.5V6.00001C7.5 6.39784 7.65804 6.77937 7.93934 7.06067C8.22064 7.34198 8.60218 7.50001 9 7.50001H13.5V9.00001H15ZM9 6.00001V1.80751L13.1925 6.00001H9Z" fill="#504F4F"/>
</svg>
