<svg width="24" height="24" viewBox="0 0 24 24" fill="none" xmlns="http://www.w3.org/2000/svg">
<path d="M2.52632 24C1.83158 24 1.23705 23.7652 0.742737 23.2956C0.247579 22.8252 0 22.26 0 21.6V2.4C0 1.74 0.247579 1.1748 0.742737 0.7044C1.23705 0.2348 1.83158 0 2.52632 0H11.5895C11.9263 0 12.2476 0.0600001 12.5533 0.18C12.8581 0.3 13.1263 0.47 13.3579 0.69L19.4842 6.51C19.7158 6.73 19.8947 6.9848 20.0211 7.2744C20.1474 7.5648 20.2105 7.87 20.2105 8.19V10.92L10.1053 20.49V24H2.52632ZM13.2632 24C13.0947 24 12.9474 23.94 12.8211 23.82C12.6947 23.7 12.6316 23.56 12.6316 23.4V21.96C12.6316 21.8 12.6686 21.64 12.7427 21.48C12.816 21.32 12.9053 21.19 13.0105 21.09L19.1368 15.24L21.8526 17.76L15.6947 23.64C15.5895 23.76 15.4526 23.85 15.2842 23.91C15.1158 23.97 14.9474 24 14.7789 24H13.2632ZM22.7684 16.92L20.0842 14.37L20.9684 13.53C21.2211 13.29 21.5263 13.17 21.8842 13.17C22.2421 13.17 22.5368 13.29 22.7684 13.53L23.6526 14.4C23.8842 14.64 24 14.9248 24 15.2544C24 15.5848 23.8842 15.86 23.6526 16.08L22.7684 16.92ZM12.6316 8.4H17.6842L11.3684 2.4V7.2C11.3684 7.54 11.4897 7.8248 11.7322 8.0544C11.9739 8.2848 12.2737 8.4 12.6316 8.4Z" fill="url(#paint0_linear_1824_19470)"/>
<defs>
<linearGradient id="paint0_linear_1824_19470" x1="12" y1="0" x2="12" y2="24" gradientUnits="userSpaceOnUse">
<stop stop-color="#8DB040"/>
<stop offset="1" stop-color="#17598C"/>
</linearGradient>
</defs>
</svg>
