<svg width="32" height="32" viewBox="0 0 32 32" fill="none" xmlns="http://www.w3.org/2000/svg">
<circle cx="16" cy="16" r="15.5" fill="#8DB040" stroke="white"/>
<path d="M21.5717 21.875V17H15.0983C14.9089 17 14.7272 16.921 14.5932 16.7803C14.4593 16.6397 14.384 16.4489 14.384 16.25C14.384 16.0511 14.4593 15.8603 14.5932 15.7197C14.7272 15.579 14.9089 15.5 15.0983 15.5H21.5717V10.625C21.5709 9.92904 21.3073 9.26179 20.8386 8.76967C20.3699 8.27755 19.7344 8.00074 19.0716 8H10.5C9.83721 8.00074 9.20172 8.27755 8.73303 8.76967C8.26433 9.26179 8.00071 9.92904 8 10.625V21.875C8.00071 22.571 8.26433 23.2382 8.73303 23.7303C9.20172 24.2225 9.83721 24.4993 10.5 24.5H19.0716C19.7344 24.4993 20.3699 24.2225 20.8386 23.7303C21.3073 23.2382 21.5709 22.571 21.5717 21.875ZM25.5615 17L23.2096 19.4698C23.0813 19.6116 23.0109 19.8005 23.0132 19.996C23.0156 20.1916 23.0907 20.3785 23.2224 20.5168C23.3541 20.6551 23.5321 20.7339 23.7183 20.7364C23.9046 20.7389 24.0844 20.6649 24.2195 20.5302L27.791 16.7802C27.9248 16.6395 28 16.4488 28 16.25C28 16.0512 27.9248 15.8605 27.791 15.7198L24.2195 11.9698C24.0844 11.8351 23.9046 11.7611 23.7183 11.7636C23.5321 11.7661 23.3541 11.8449 23.2224 11.9832C23.0907 12.1215 23.0156 12.3084 23.0132 12.504C23.0109 12.6995 23.0813 12.8884 23.2096 13.0302L25.5615 15.5H21.5717V17H25.5615Z" fill="white"/>
</svg>
